<svg xmlns="http://www.w3.org/2000/svg" viewBox="0 0 800 520" preserveAspectRatio="xMidYMid slice">
  <title>A struck-out flame on the left and a T-shirt on the right held inside a circular arrow that carries it back into use</title>
  <desc>Cover: the bonfire is out, and the unsold garment goes back into circulation.</desc>
  <rect width="800" height="520" fill="#0e2620"/>
  <g stroke="#1b4a3a" stroke-width="1" opacity=".9"><path d="M0 130h800M0 260h800M0 390h800M200 0v520M400 0v520M600 0v520"/></g>
  <!-- Sonmus ates: kesik alev, ustunden cizgi, altta kul -->
  <path d="M308.0 372.0c-44.0 -30.0 -46.0 -84.0 -8.0 -124.0c2.0 30.0 18.0 42.0 30.0 40.0c-8.0 -40.0 10.0 -76.0 44.0 -98.0c-6.0 44.0 24.0 70.0 32.0 108.0c8.0 38.0 -12.0 64.0 -40.0 74.0" fill="none" stroke="#e8b98a" stroke-width="3" stroke-dasharray="9 9" opacity=".5"/><path d="M252.0 386.0L402.0 160.0" stroke="#e8b98a" stroke-width="4" opacity=".8"/>
  <path d="M252 392h128" stroke="#e8b98a" stroke-width="2" opacity=".3"/>
  <!-- Yeniden dolasima giren urun -->
  <g fill="none" stroke="#7fc9a6" stroke-width="3" opacity="1"><path d="M534.0 198.0l38.0 -20.0h36.0l38.0 20.0l30.0 36.0l-26.0 18.0l-16.0 -14.0v106.0h-114.0v-106.0l-16.0 14.0l-26.0 -18.0z"/><path d="M572.0 178.0c4.0 14.0 32.0 14.0 36.0 0"/></g>
  <g fill="#7fc9a6" opacity=".18"><rect x="556" y="262" width="68" height="10" rx="5"/><rect x="556" y="284" width="46" height="10" rx="5"/></g>
  <!-- Dairesel ok: urun yeniden kullanima doner -->
  <g fill="none" stroke="#7fc9a6" stroke-width="3" opacity=".75"><path d="M462.0 262.0A128 128 0 0 1 654.0 151.1"/><path d="M718.0 262.0A128 128 0 0 1 526.0 372.9"/></g>
  <path d="M659.2 154.1L639.6 152.1L647.6 138.2z" fill="#7fc9a6" opacity=".75"/>
  <path d="M520.8 369.9L540.4 371.9L532.4 385.8z" fill="#7fc9a6" opacity=".75"/>
</svg>
