<svg xmlns="http://www.w3.org/2000/svg" viewBox="0 0 1200 675" role="img">
  <title>Ten small tiles, each with its own icon, and beside them an archive box marked with a tally of five</title>
  <desc>Ten narrow exceptions remain, each needing written evidence that has to be kept for five years.</desc>
  <rect width="1200" height="675" fill="#0e2620"/>
  <g stroke="#1b4a3a" stroke-width="1"><path d="M0 168h1200M0 337h1200M0 506h1200"/></g>
  <rect x="110" y="150" width="150" height="150" rx="12" fill="#7fc9a6" fill-opacity=".05" stroke="#7fc9a6" stroke-width="2" opacity=".55"/>
  <g fill="none" stroke="#7fc9a6" stroke-width="3"><path d="M185 191l40 70h-80z"/><path d="M185 217v22"/></g><circle cx="185" cy="249" r="3.5" fill="#7fc9a6"/>
  <rect x="288" y="150" width="150" height="150" rx="12" fill="#7fc9a6" fill-opacity=".05" stroke="#7fc9a6" stroke-width="2" opacity=".55"/>
  <g fill="none" stroke="#7fc9a6" stroke-width="3"><path d="M363 189v76M337 265h52M319 203h88"/><path d="M319 203l-16 34h32zM407 203l-16 34h32z"/></g>
  <rect x="466" y="150" width="150" height="150" rx="12" fill="#7fc9a6" fill-opacity=".05" stroke="#7fc9a6" stroke-width="2" opacity=".55"/>
  <g fill="none" stroke="#7fc9a6" stroke-width="3"><path d="M501 207h52l28 22l-28 22h-52z"/><circle cx="551" cy="229" r="5"/></g><path d="M497 265L585 193M497 193L585 265" stroke="#e8b98a" stroke-width="3" opacity=".8"/>
  <rect x="644" y="150" width="150" height="150" rx="12" fill="#7fc9a6" fill-opacity=".05" stroke="#7fc9a6" stroke-width="2" opacity=".55"/>
  <g fill="none" stroke="#7fc9a6" stroke-width="3"><path d="M685 189h40l14 14v66h-54z"/><circle cx="741" cy="251" r="20" fill="#0e2620"/><path d="M741 239v12h10"/></g>
  <rect x="822" y="150" width="150" height="150" rx="12" fill="#7fc9a6" fill-opacity=".05" stroke="#7fc9a6" stroke-width="2" opacity=".55"/>
  <g fill="none" stroke="#7fc9a6" stroke-width="3"><rect x="857" y="199" width="58" height="40" rx="4"/><path d="M909 241v-10a12 12 0 0 1 24 0v10"/><rect x="903" y="241" width="36" height="28" rx="5" fill="#0e2620"/></g>
  <rect x="110" y="330" width="150" height="150" rx="12" fill="#7fc9a6" fill-opacity=".05" stroke="#7fc9a6" stroke-width="2" opacity=".55"/>
  <g fill="none" stroke="#7fc9a6" stroke-width="3" opacity="1"><path d="M152.5 380.6l22.0 -11.6h20.9l22.0 11.6l17.4 20.9l-15.1 10.4l-9.3 -8.1v61.5h-66.1v-61.5l-9.3 8.1l-15.1 -10.4z"/><path d="M174.6 369.0c2.3 8.1 18.6 8.1 20.9 0"/></g><path d="M171 405l10 10l-8 8l12 12l-8 10" fill="none" stroke="#e8b98a" stroke-width="3"/>
  <rect x="288" y="330" width="150" height="150" rx="12" fill="#7fc9a6" fill-opacity=".05" stroke="#7fc9a6" stroke-width="2" opacity=".55"/>
  <g fill="none" stroke="#7fc9a6" stroke-width="3" opacity="1"><path d="M330.5 380.6l22.0 -11.6h20.9l22.0 11.6l17.4 20.9l-15.1 10.4l-9.3 -8.1v61.5h-66.1v-61.5l-9.3 8.1l-15.1 -10.4z"/><path d="M352.6 369.0c2.3 8.1 18.6 8.1 20.9 0"/></g><path d="M337 419h14M359 419h4M377 419h14" stroke="#e8b98a" stroke-width="3"/>
  <rect x="466" y="330" width="150" height="150" rx="12" fill="#7fc9a6" fill-opacity=".05" stroke="#7fc9a6" stroke-width="2" opacity=".55"/>
  <g fill="none" stroke="#7fc9a6" stroke-width="3"><path d="M505 395h72v48h-72z"/><path d="M505 395l10 -18h52l10 18"/></g><circle cx="521" cy="365" r="4" fill="#7fc9a6" opacity=".6"/><circle cx="541" cy="365" r="4" fill="#7fc9a6" opacity=".6"/><circle cx="561" cy="365" r="4" fill="#7fc9a6" opacity=".6"/><path d="M527 411l28 24M555 411l-28 24" stroke="#e8b98a" stroke-width="3"/>
  <rect x="644" y="330" width="150" height="150" rx="12" fill="#7fc9a6" fill-opacity=".05" stroke="#7fc9a6" stroke-width="2" opacity=".55"/>
  <path d="M719 439c-42 -26 -46 -54 -26 -64c12 -6 22 0 26 10c4 -10 14 -16 26 -10c20 10 16 38 -26 64z" fill="none" stroke="#7fc9a6" stroke-width="3"/><circle cx="719" cy="407" r="8" fill="none" stroke="#7fc9a6" stroke-width="2" stroke-dasharray="4 4"/>
  <rect x="822" y="330" width="150" height="150" rx="12" fill="#7fc9a6" fill-opacity=".05" stroke="#7fc9a6" stroke-width="2" opacity=".55"/>
  <g fill="none" stroke="#7fc9a6" stroke-width="3"><path d="M851 379h92"/><path d="M897 379v8c0 6 -8 6 -8 12M889 399l-30 26h76l-30 -26"/></g><path d="M851 445h92" stroke="#7fc9a6" stroke-width="2" stroke-dasharray="6 8" opacity=".6"/>
  <!-- Bes yil saklanan kanit: arsiv kutusu, bes cizik -->
  <g fill="none" stroke="#7fc9a6" stroke-width="3"><rect x="1020" y="250" width="100" height="126" rx="8"/><path d="M1012 250h116v-22h-116z"/></g>
  <g stroke="#7fc9a6" stroke-width="4" stroke-linecap="round"><path d="M1040 296v46"/><path d="M1055 296v46"/><path d="M1070 296v46"/><path d="M1085 296v46"/><path d="M1034 334L1100 302" stroke="#e8b98a"/></g>
</svg>
